<?xml version="1.0" standalone="no"?>
<!DOCTYPE svg PUBLIC "-//W3C//DTD SVG 1.1//EN" "http://www.w3.org/Graphics/SVG/1.1/DTD/svg11.dtd">
<svg xmlns="http://www.w3.org/2000/svg" class="svg-color-abbey svg-sizing-35" x="0px" y="0px" width="27px" height="27px" viewBox="0 0 27 27" preserveAspectRatio="none" fill="#555c5f">
<path d="M2,26c0,0.553,0.447,1,1,1h5c0.553,0,1-0.447,1-1v-8.185c-0.373-0.132-0.711-0.335-1-0.595V19 H6v-1v-1v-1H5v1v2H3v-9H2v1H1V9V8c0-0.552,0.449-1,1-1h1h1h3h0.184c0.078-0.218,0.173-0.426,0.297-0.617C8.397,5.751,9,4.696,9,3.5 C9,1.567,7.434,0,5.5,0S2,1.567,2,3.5C2,4.48,2.406,5.364,3.056,6H3H2C0.895,6,0,6.895,0,8v7c0,1.104,0.895,2,2,2V26z M8,26H6v-6h2 V26z M5,26H3v-6h2V26z M3,3.5C3,2.121,4.121,1,5.5,1S8,2.121,8,3.5S6.879,6,5.5,6S3,4.879,3,3.5 M1,15v-3h1v4 C1.449,16,1,15.552,1,15"></path>
                          <path d="M11.056,6H11h-1C8.895,6,8,6.895,8,8v7c0,1.104,0.895,2,2,2v9c0,0.553,0.447,1,1,1h5 c0.553,0,1-0.447,1-1v-9c1.104,0,2-0.896,2-2V8c0-1.105-0.896-2-2-2h-1h-0.056C16.594,5.364,17,4.48,17,3.5 C17,1.567,15.434,0,13.5,0S10,1.567,10,3.5C10,4.48,10.406,5.364,11.056,6 M10,15v1c-0.551,0-1-0.448-1-1v-3h1V15z M11,20h2v6h-2 V20z M16,26h-2v-6h2V26z M17,16v-1v-3h1v3C18,15.552,17.551,16,17,16 M17,7c0.551,0,1,0.448,1,1v1v1v1h-1v-1h-1v5v4h-2v-1v-1v-1h-1 v1v1v1h-2v-4v-5h-1v1H9v-1V9V8c0-0.552,0.449-1,1-1h1h1h3h1H17z M13.5,1C14.879,1,16,2.121,16,3.5C16,4.879,14.879,6,13.5,6 S11,4.879,11,3.5C11,2.121,12.121,1,13.5,1"> </path>
                          <polygon points="15,13 14,13 14,9 13,9 12,9 12,10 13,10 13,13 12,13 12,14 13,14 14,14 15,14 	"></polygon>
                          <polygon points="7,14 7,13 5,13 5,12 6,12 7,12 7,10 7,9 6,9 4,9 4,10 6,10 6,11 5,11 4,11 4,12 4,13 4,14 5,14"></polygon>
                          <polygon points="20,10 22,10 22,11 21,11 21,12 22,12 22,13 20,13 20,14 22,14 23,14 23,13 23,12 23,11 23,10 23,9 22,9 20,9 	"></polygon>
                          <path d="M19.519,6.383C19.643,6.574,19.738,6.782,19.816,7H20h3h1h1c0.551,0,1,0.448,1,1v3h-1v-1h-1v9 h-2v-2v-1h-1v1v2h-2v-1.78c-0.289,0.26-0.627,0.463-1,0.595V26c0,0.553,0.447,1,1,1h5c0.553,0,1-0.447,1-1v-9c1.104,0,2-0.896,2-2 V8c0-1.105-0.896-2-2-2h-1h-0.056C24.594,5.364,25,4.48,25,3.5C25,1.567,23.434,0,21.5,0S18,1.567,18,3.5 c0,0.736,0.229,1.418,0.617,1.981C18.861,5.834,19.166,6.14,19.519,6.383 M19,20h2v6h-2V20z M24,26h-2v-6h2V26z M26,15 c0,0.552-0.449,1-1,1v-4h1V15z M21.5,1C22.879,1,24,2.121,24,3.5C24,4.879,22.879,6,21.5,6C20.121,6,19,4.879,19,3.5 C19,2.121,20.121,1,21.5,1"></path>
                        </svg>