<svg xmlns="http://www.w3.org/2000/svg" x="0px" y="0px" width="5px" height="14px" viewBox="0 0 7 21" enable-background="new 0 0 7 21" xml:space="preserve" fill="#e1e1e1"><g><circle cx="3.5" cy="3.5" r="3"></circle><path d="M3.5,1C4.879,1,6,2.122,6,3.5S4.879,6,3.5,6S1,4.878,1,3.5S2.122,1,3.5,1 M3.5,0C1.567,0,0,1.567,0,3.5S1.567,7,3.5,7      S7,5.433,7,3.5S5.433,0,3.5,0L3.5,0z"></path></g><g><circle cx="3.695" cy="17.5" r="3"></circle><path d="M3.695,15c1.378,0,2.5,1.122,2.5,2.5S5.073,20,3.695,20s-2.5-1.122-2.5-2.5S2.316,15,3.695,15 M3.695,14      c-1.933,0-3.5,1.567-3.5,3.5s1.567,3.5,3.5,3.5s3.5-1.567,3.5-3.5S5.628,14,3.695,14L3.695,14z"></path></g></svg>